<svg width="74" height="75" viewBox="0 0 74 75" fill="none" xmlns="http://www.w3.org/2000/svg">
<path fill-rule="evenodd" clip-rule="evenodd" d="M67.8333 52.4166V64.75C67.8333 68.1557 65.0724 70.9166 61.6666 70.9166H12.3333C8.92754 70.9166 6.16663 68.1557 6.16663 64.75L6.16663 52.4166H19.361L21.0388 57.45C21.8781 59.9681 24.2346 61.6666 26.889 61.6666H47.4277C49.7635 61.6666 51.8987 60.3469 52.9433 58.2578L55.8639 52.4166L67.8333 52.4166Z" fill="#8733C1"/>
<path opacity="0.8" fill-rule="evenodd" clip-rule="evenodd" d="M7.901 46.25L18.2735 27.81C19.3657 25.8683 21.4203 24.6666 23.6482 24.6666L50.3517 24.6666C52.5796 24.6666 54.6342 25.8683 55.7265 27.81L66.0989 46.25H55.8639C53.5281 46.25 51.3928 47.5696 50.3483 49.6588L47.4277 55.5H26.889L25.2112 50.4666C24.3718 47.9484 22.0153 46.25 19.361 46.25H7.901Z" fill="#98C151"/>
<path d="M47.1379 11.1972C47.9632 10.2224 47.2703 8.72796 45.9931 8.72796L39.8708 8.72796V2.49597C39.8708 1.66755 39.1992 0.995972 38.3708 0.995972L35.1323 0.995972C34.3038 0.995972 33.6323 1.66754 33.6323 2.49597V8.72796H27.5099C26.2327 8.72796 25.5398 10.2224 26.3651 11.1972L35.6067 22.1125C36.2059 22.8201 37.2971 22.8201 37.8963 22.1125L47.1379 11.1972Z" fill="#8733C1"/>
</svg>