<svg width="90" height="90" viewBox="0 0 90 90" fill="none" xmlns="http://www.w3.org/2000/svg">
<path d="M72.5486 32.6712C68.1992 30.4748 63.3471 29.4658 58.4827 29.7462C53.6182 30.0265 48.9141 31.5863 44.8459 34.2678C46.665 35.467 48.3367 36.876 49.8267 38.4657C53.1079 36.7008 56.7902 35.8156 60.5152 35.8963C64.2401 35.9771 67.8806 37.0211 71.0822 38.9267C74.2838 40.8323 76.9374 43.5345 78.7845 46.7701C80.6317 50.0058 81.6094 53.6646 81.6226 57.3904C81.6226 63.1125 79.3495 68.6003 75.3033 72.6465C71.2572 76.6926 65.7694 78.9657 60.0472 78.9657C54.6181 78.9587 49.3912 76.905 45.4093 73.2144C41.4273 69.5239 38.9832 64.4678 38.5644 59.0548C38.5212 58.5123 38.5027 57.9637 38.5027 57.4151C38.5024 54.5794 39.0626 51.7717 40.1512 49.1534C41.2398 46.5351 42.8353 44.1578 44.8459 42.1582C43.3743 40.6923 41.6988 39.4466 39.8712 38.4596C36.745 41.7801 34.4895 45.823 33.3061 50.2274C32.73 52.3636 32.4154 54.5619 32.3692 56.774C32.3692 56.9774 32.3692 57.187 32.3692 57.3904C32.3619 64.4354 35.048 71.2167 39.8774 76.3459C41.3647 77.9318 43.0322 79.3385 44.8459 80.5377C47.9967 82.7117 51.5634 84.2101 55.3216 84.9385C59.0797 85.667 62.948 85.6096 66.6829 84.7702C70.4178 83.9307 73.9386 82.3273 77.0236 80.0609C80.1086 77.7944 82.6912 74.9139 84.6087 71.6007C86.5262 68.2875 87.7372 64.6133 88.1655 60.8092C88.5938 57.0051 88.2301 53.1536 87.0973 49.497C85.9645 45.8403 84.0871 42.4577 81.5833 39.562C79.0795 36.6663 76.0034 34.3201 72.5486 32.6712Z" fill="#D54287"/>
<path d="M56.3917 50.2212C52.9409 52.4135 48.9372 53.5777 44.8489 53.5777C40.7606 53.5777 36.7569 52.4135 33.3061 50.2212C30.9067 48.6973 28.8316 46.715 27.1994 44.3878C25.5673 42.0607 24.4102 39.4345 23.7944 36.6596C21.7722 37.2265 19.8446 38.0885 18.0739 39.2178C19.3793 44.0682 21.9771 48.473 25.5902 51.9624C29.2033 55.4517 33.6961 57.8945 38.589 59.0301C44.9069 60.497 51.5394 59.6985 57.3287 56.774C60.8096 55.0103 63.8806 52.5341 66.3423 49.5063C68.8041 46.4786 70.6014 42.9669 71.6177 39.1993C69.847 38.07 67.9194 37.208 65.8972 36.6411C65.2863 39.4196 64.132 42.0498 62.5007 44.3805C60.8693 46.7111 58.7932 48.6961 56.3917 50.2212ZM44.8458 4.31506C37.4888 4.31506 30.4331 7.23763 25.2309 12.4398C20.0286 17.642 17.1061 24.6978 17.1061 32.0548C17.1061 32.2582 17.1061 32.4678 17.1061 32.6712C19.0893 31.6601 21.1884 30.8942 23.3568 30.3904C23.8382 25.0236 26.3105 20.0311 30.2873 16.3952C34.264 12.7592 39.4574 10.7429 44.8458 10.7429C50.2342 10.7429 55.4276 12.7592 59.4043 16.3952C63.3811 20.0311 65.8534 25.0236 66.3349 30.3904C68.4904 30.8976 70.5768 31.6634 72.5485 32.6712C72.5485 32.4678 72.5485 32.2582 72.5485 32.0548C72.5486 24.7042 69.6311 17.6541 64.4368 12.4529C59.2426 7.25176 52.1964 4.32486 44.8458 4.31506V4.31506Z" fill="#8733C1"/>
<path d="M18.0739 39.1993C21.0001 37.3484 24.3287 36.2288 27.7786 35.9353C31.2286 35.6418 34.6985 36.1828 37.8953 37.5128C41.0921 38.8428 43.9218 40.9226 46.1455 43.5766C48.3692 46.2305 49.9214 49.3807 50.6712 52.761C52.6934 52.194 54.621 51.332 56.3917 50.2027C54.8797 44.5339 51.6092 39.4905 47.0504 35.7974C42.4916 32.1043 36.8793 29.9518 31.0201 29.6491C25.161 29.3464 19.3567 30.9093 14.4416 34.113C9.52658 37.3167 5.75385 41.9963 3.66574 47.4791C1.57763 52.9619 1.28168 58.9656 2.82042 64.6272C4.35916 70.2888 7.65335 75.3168 12.2295 78.9883C16.8056 82.6599 22.428 84.786 28.2886 85.0611C34.1491 85.3362 39.9459 83.746 44.8459 80.5192C43.0322 79.3201 41.3647 77.9133 39.8774 76.3274C34.9829 78.7829 29.338 79.2854 24.0867 77.7332C18.8355 76.181 14.3709 72.6902 11.598 67.9683C8.82513 63.2465 7.95138 57.647 9.1539 52.3048C10.3564 46.9626 13.5452 42.2776 18.0739 39.1993ZM57.3287 56.774C55.3541 57.7743 53.2656 58.5318 51.1089 59.0301C50.7107 64.1531 48.4911 68.9641 44.852 72.5918C46.3227 74.0587 47.9983 75.3046 49.8267 76.2904C54.6435 71.1755 57.3286 64.4163 57.3349 57.3904C57.3349 57.187 57.3349 56.9774 57.3287 56.774Z" fill="#98C151"/>
</svg>
